<svg xmlns="http://www.w3.org/2000/svg" xmlns:xlink="http://www.w3.org/1999/xlink" viewBox="0 0 86.45 123.81"><defs><style>.cls-1{isolation:isolate;}.cls-2{opacity:0.93;}.cls-3{fill:url(#Degradado_sin_nombre_6);}.cls-4{mix-blend-mode:multiply;}.cls-5{fill:url(#Degradado_sin_nombre_6-2);}.cls-6{fill:#131214;}.cls-7{fill:url(#Degradado_sin_nombre_6-3);}.cls-8{fill:#303033;}.cls-9{fill:url(#Degradado_sin_nombre_6-4);}.cls-10{opacity:0.11;fill:url(#Degradado_sin_nombre_3);}.cls-11{fill:#b32218;}.cls-12{fill:#b53532;}.cls-13{fill:#e8c2b2;}.cls-14{fill:#c2a194;}.cls-15{fill:#952921;}.cls-16{fill:#c23234;}.cls-17{fill:#fff;}.cls-18{fill:#d27b33;}</style><linearGradient id="Degradado_sin_nombre_6" x1="2.57" y1="77.36" x2="83.87" y2="77.36" gradientUnits="userSpaceOnUse"><stop offset="0" stop-color="#2b2b2b"/><stop offset="0.31" stop-color="#2e2e2e"/><stop offset="0.56" stop-color="#383839"/><stop offset="0.8" stop-color="#48484a"/><stop offset="1" stop-color="#5b5b5f"/></linearGradient><linearGradient id="Degradado_sin_nombre_6-2" x1="32.68" y1="39.89" x2="69.97" y2="39.89" xlink:href="#Degradado_sin_nombre_6"/><linearGradient id="Degradado_sin_nombre_6-3" x1="52.43" y1="52.67" x2="86.43" y2="52.67" xlink:href="#Degradado_sin_nombre_6"/><linearGradient id="Degradado_sin_nombre_6-4" x1="8.21" y1="77.36" x2="78.23" y2="77.36" xlink:href="#Degradado_sin_nombre_6"/><linearGradient id="Degradado_sin_nombre_3" x1="3.14" y1="73.72" x2="73.22" y2="73.72" gradientUnits="userSpaceOnUse"><stop offset="0.03" stop-color="#aeadb2"/><stop offset="1" stop-color="#5b5b5f"/></linearGradient></defs><title>Recurso 1</title><g class="cls-1"><g id="Capa_2" data-name="Capa 2"><g id="Capa_1-2" data-name="Capa 1"><g class="cls-2"><path class="cls-3" d="M83.87,77.36A40.65,40.65,0,1,1,43.22,36.71,40.65,40.65,0,0,1,83.87,77.36Z"/></g><g class="cls-4"><path class="cls-5" d="M63.29,48.86a35,35,0,0,0-28-5.45L32.68,32.12A46.59,46.59,0,0,1,70,39.39Z"/></g><path class="cls-6" d="M43.22,123.81a46.57,46.57,0,0,1-21.13-5.07l5.28-10.33a34.87,34.87,0,0,0,31.7,0l5.28,10.33A46.61,46.61,0,0,1,43.22,123.81Z"/><path class="cls-7" d="M73.86,70.35a31.44,31.44,0,0,0-21.43-23L56.21,35A44.39,44.39,0,0,1,86.43,67.5Z"/><path class="cls-8" d="M32.47,119.84a43.54,43.54,0,0,1-29-23.56L15,90.7a30.73,30.73,0,0,0,20.48,16.62Z"/><path class="cls-9" d="M77.52,70.31a35.64,35.64,0,0,1,.71,7,35,35,0,1,1-35-35m0,0a35,35,0,0,1,34.3,28"/><path class="cls-10" d="M22.87,110.42,73.22,44.76s-41.48-26-67.75,17.5C5.47,62.26-6.24,88,22.87,110.42Z"/><path class="cls-11" d="M28.74,111.64A37.15,37.15,0,0,1,6,77.36H10.4a32.77,32.77,0,0,0,20,30.24Z"/><path class="cls-8" d="M43.22,114.56A37.24,37.24,0,0,1,6,77.36H10.4a32.85,32.85,0,0,0,32.82,32.82Zm37.2-37.2H76A32.86,32.86,0,0,0,43.22,44.55V40.17A37.24,37.24,0,0,1,80.42,77.36Z"/><path class="cls-8" d="M76.3,105.2l-4-3.32a38.16,38.16,0,0,0,6.56-37.81l4.83-1.81A43.31,43.31,0,0,1,76.3,105.2Z"/><path class="cls-6" d="M10.63,61.54,4.3,58.64A44.21,44.21,0,0,1,40.66,33l.6,6.94A37.21,37.21,0,0,0,10.63,61.54Z"/><path class="cls-6" d="M25.1,114.72A43.27,43.27,0,0,1,0,79.1l5.13-.44A38.18,38.18,0,0,0,27.24,110Z"/><path class="cls-12" d="M66,105.65c-.75,4.06-12.4,5.31-26,2.78s-24-7.86-23.28-11.92,12.4-5.31,26-2.78S66.79,101.59,66,105.65Z"/><path class="cls-6" d="M22.71,92.48c-.08,1.71,1.94,5.56,2.42,6s.2,2.42-.08,2.86c-.79.68-5.64,1-7-2a12.39,12.39,0,0,1-.58-4.56,5.19,5.19,0,0,1,.58-4.4c.81-.69,2.24.62,2.24.62S22.15,92.12,22.71,92.48Z"/><path class="cls-13" d="M33.3,75.7a41.81,41.81,0,0,1-3.76,5.92c-1.25,1.51-6.55,6.43-6.75,10.54.13,1.14-4.57,2.45-4.75-1.81,2.56-5.67,2.86-9.78,4.53-12.82a5.63,5.63,0,0,1,3.08-2.17l1.82-2.9S33.24,75.19,33.3,75.7Z"/><path class="cls-6" d="M22.9,92.33a1.53,1.53,0,1,1-1.53-1.44A1.49,1.49,0,0,1,22.9,92.33Z"/><path class="cls-6" d="M59,97.16s4.53,4.08,5.82,4.42c1.66.44,1.94,3.14,1.23,3.81-1,.91-3.21.16-4.52-.36s-4.2-2.6-5.06-3.06-4-.22-4.79-2,1.18-5.69,1.18-5.69Z"/><path class="cls-13" d="M52.9,94.25c1.35-5.9-1.59-12.42,1.79-16.15L52.6,74.64s7.48-4.17,7.53-2.66C60.19,73.75,62,77,62,78.3S57.82,93.87,59,97.16C59,97.16,53.53,100.11,52.9,94.25Z"/><path class="cls-14" d="M38.59,10.74c0,2-2.85,2.75-2.85,2.75v3l2.64,4.76,4.47,2.78,4.68-1.47L50.22,18l-1.93-4.69-4.76-2.94S38.86,10,38.59,10.74Z"/><path class="cls-14" d="M50.49,12s3.72-.42,5.43,2.22,2.34,4.89,5,7.26c.64.59-1.13,13.11-2,12.5-2.5-2.68-3.45-8.72-5.87-10.46-.8-.4-3.43-5.16-3.43-5.16Z"/><path class="cls-13" d="M60.72,18.34c-.63,3.55-1.76,7.8-2.26,9.59-.6,2.1-.72,6.55,1.59,6.63s4.65-3.18,4.77-5.9S64,22.8,64,17.17c-.75-.53-1,0-1,0A5.87,5.87,0,0,0,60.72,18.34Z"/><path class="cls-13" d="M31.84,15.66c-1.15.51-2,1.9-3.88,3-.33.66.59,11,.59,11L30,32.28l2.85,2.08,3.81-3,3-5-2.14-8.16L34.84,16S34.2,14.63,31.84,15.66Z"/><polygon class="cls-14" points="34.74 23.4 36.99 23.04 37.77 29.6 33.2 33.65 30.14 32.81 28.54 29.6 30.08 24.41 34.74 23.4"/><path class="cls-8" d="M44.68,20.82c-4.35,1.27-6.92-6.69-8.94-7.33a12.47,12.47,0,0,0-3.9,2.17c8,7.93,3.18,16.74.64,17.15-.58.1-2.11-.12-3.93-3.21.69,3.81,3.79,6.37,4.64,11.71a6.19,6.19,0,0,1,2,2.31l5.8.87,7.15-1.75,3.34-2.62s1.33-8,0-10.52a13.34,13.34,0,0,0,2-7s-.32-7.4-3-8.52a5.29,5.29,0,0,0-2.2.08S49,19.55,44.68,20.82Z"/><path class="cls-13" d="M38.36,8c.32-.43-2-7.91,6.08-8S51,9.53,51,9.53s.32,5.92-1.47,9c-.49.84-2.38,0-3.16-.12-6.13-2.76-5.94-5.82-5.94-5.82A3.92,3.92,0,0,1,38.36,8Z"/><path class="cls-15" d="M41.46,58.32c5.64,8.18,6.75,16.36,7.15,17.16,7.39,2.54,12.25-2.21,13-3.81-1.54-4-4.7-18.91-10.1-28.93C50.44,43,40.92,57,41.46,58.32Z"/><path class="cls-16" d="M33.19,44c-5.95,7.15-7,23.59-8.31,28.44,2.75,6.32,12.84,4.05,14.2,3,1.5-7.31,4.45-17.32,4.45-17.32,8.57-9.69,7.94-15.42,7.94-15.42l-7.26,1.51-7.52-.59S34.47,42.67,33.19,44Z"/><path class="cls-13" d="M46.09,21.89A36.19,36.19,0,0,1,44,29.6a50.12,50.12,0,0,0-9.22-6.2s-3.56-8.5-8.46-3.46c-2.9,2.82-1.21,8.5,3.74,10.37,5.92,2.86,12.87,8.56,14.89,8.66,1.31.08,6.16-1.79,6.12-5.6,0-2.63-.52-5.64-.61-11.6-.22-.32-1.81,0-1.81,0S46.58,21.41,46.09,21.89Z"/><path class="cls-17" d="M46.22,20.66l-.13,1.23a3.47,3.47,0,0,0,4.33-.12c0-.14.07-1.32.07-1.32Z"/><path class="cls-16" d="M46.22,20.66s-1.88-1.92-2-3.38a2.89,2.89,0,0,1,1-2.37s-.23-3.17,2.62-3.17A4,4,0,0,1,52,15.36c.12,1.59-1.45,4.65-1.55,5.09A3.65,3.65,0,0,1,46.22,20.66Z"/><path class="cls-13" d="M50.22,19.33c0,.45-.79.82-1.76.82s-1.76-.37-1.76-.82.79-.82,1.76-.82S50.22,18.88,50.22,19.33Z"/><path class="cls-14" d="M44,29.6s-2.65,3.73.25,6.43A27.38,27.38,0,0,1,44,29.6Z"/><path class="cls-18" d="M33.19,41.31s7.16,4.63,18.28-1.19a22.71,22.71,0,0,1,0,2.62C39.87,49.1,33.19,44,33.19,44Z"/><path class="cls-17" d="M60.76,17.36s0,.63,0,1c2.55.39,3.3-1.17,3.3-1.17l-.08-1.23-1.86-.37Z"/><path class="cls-16" d="M60.88,17.36A3.77,3.77,0,0,0,63.94,16s.26-4.55-.59-6.11a3.4,3.4,0,0,0-3.64-1.75c-.67.2-2.92,2.07-2.42,4.12A2.08,2.08,0,0,0,59.6,14,3.52,3.52,0,0,0,60.88,17.36Z"/><path class="cls-13" d="M64,15.46c-.93.19-1.75,0-1.87-.46s.62-1.11,1.66-1.38l.21,0A12.37,12.37,0,0,1,64,15.46Z"/><path class="cls-6" d="M60.13,95.66a3.21,3.21,0,0,1-1.38,2.55c-.76.44-1.38,0-1.38-1a3.25,3.25,0,0,1,1.38-2.56C59.51,94.26,60.13,94.69,60.13,95.66Z"/></g></g></g></svg>