<svg xmlns="http://www.w3.org/2000/svg" xmlns:xlink="http://www.w3.org/1999/xlink" viewBox="0 0 86.45 119.73"><defs><style>.cls-1{isolation:isolate;}.cls-2{opacity:0.93;}.cls-3{fill:url(#Degradado_sin_nombre_6);}.cls-4{mix-blend-mode:multiply;}.cls-5{fill:url(#Degradado_sin_nombre_6-2);}.cls-6{fill:#131214;}.cls-7{fill:url(#Degradado_sin_nombre_6-3);}.cls-8{fill:#303033;}.cls-9{fill:url(#Degradado_sin_nombre_6-4);}.cls-10{opacity:0.11;fill:url(#Degradado_sin_nombre_3);}.cls-11{fill:#b32218;}.cls-12{fill:#c23234;}.cls-13{fill:#939597;}.cls-14{fill:#e8c2b2;}.cls-15{fill:#f5f5f5;}.cls-16{fill:#bcbebf;}.cls-17{fill:#c2a194;}.cls-18{fill:#b15f16;}</style><linearGradient id="Degradado_sin_nombre_6" x1="2.57" y1="73.28" x2="83.87" y2="73.28" gradientUnits="userSpaceOnUse"><stop offset="0" stop-color="#2b2b2b"/><stop offset="0.31" stop-color="#2e2e2e"/><stop offset="0.56" stop-color="#383839"/><stop offset="0.8" stop-color="#48484a"/><stop offset="1" stop-color="#5b5b5f"/></linearGradient><linearGradient id="Degradado_sin_nombre_6-2" x1="32.68" y1="35.8" x2="69.97" y2="35.8" xlink:href="#Degradado_sin_nombre_6"/><linearGradient id="Degradado_sin_nombre_6-3" x1="52.43" y1="48.59" x2="86.43" y2="48.59" xlink:href="#Degradado_sin_nombre_6"/><linearGradient id="Degradado_sin_nombre_6-4" x1="8.21" y1="73.28" x2="78.23" y2="73.28" xlink:href="#Degradado_sin_nombre_6"/><linearGradient id="Degradado_sin_nombre_3" x1="3.14" y1="69.64" x2="73.22" y2="69.64" gradientUnits="userSpaceOnUse"><stop offset="0.03" stop-color="#aeadb2"/><stop offset="1" stop-color="#5b5b5f"/></linearGradient></defs><title>Recurso 3</title><g class="cls-1"><g id="Capa_2" data-name="Capa 2"><g id="Capa_1-2" data-name="Capa 1"><g class="cls-2"><path class="cls-3" d="M83.87,73.28A40.65,40.65,0,1,1,43.22,32.63,40.65,40.65,0,0,1,83.87,73.28Z"/></g><g class="cls-4"><path class="cls-5" d="M63.29,44.78a34.59,34.59,0,0,0-20.07-6.35,35,35,0,0,0-7.92.9L32.68,28A46.59,46.59,0,0,1,70,35.3Z"/></g><path class="cls-6" d="M43.22,119.73a46.58,46.58,0,0,1-21.13-5.08l5.28-10.32a35,35,0,0,0,31.7,0l5.28,10.32A46.61,46.61,0,0,1,43.22,119.73Z"/><path class="cls-7" d="M73.86,66.27a31.47,31.47,0,0,0-21.43-23L56.21,30.9A44.39,44.39,0,0,1,86.43,63.41Z"/><path class="cls-8" d="M32.47,115.75a43.53,43.53,0,0,1-29-23.55L15,86.62a30.71,30.71,0,0,0,20.48,16.61Z"/><path class="cls-9" d="M77.52,66.22a35.66,35.66,0,0,1,.71,7.06,35,35,0,1,1-35-35m0,0a35,35,0,0,1,34.3,27.95"/><path class="cls-10" d="M22.87,106.33,73.22,40.67S31.74,14.62,5.47,58.18C5.47,58.18-6.24,83.89,22.87,106.33Z"/><path class="cls-11" d="M28.74,107.55A37.14,37.14,0,0,1,6,73.28H10.4a32.77,32.77,0,0,0,20,30.24Z"/><path class="cls-8" d="M43.22,110.48A37.24,37.24,0,0,1,6,73.28H10.4A32.85,32.85,0,0,0,43.22,106.1Zm37.2-37.2H76A32.86,32.86,0,0,0,43.22,40.46V36.08A37.24,37.24,0,0,1,80.42,73.28Z"/><path class="cls-8" d="M76.3,101.11l-4-3.32A38.16,38.16,0,0,0,78.91,60l4.83-1.8a43.29,43.29,0,0,1-7.44,42.93Z"/><path class="cls-6" d="M10.63,57.45,4.3,54.56A44.16,44.16,0,0,1,40.66,28.94l.6,6.93A37.21,37.21,0,0,0,10.63,57.45Z"/><path class="cls-6" d="M25.1,110.63A43.27,43.27,0,0,1,0,75l5.13-.44a38.13,38.13,0,0,0,22.11,31.37Z"/><path class="cls-12" d="M68.06,106.14c-4.23,2.92-19.68,0-34.5-6.63S10.16,85.23,14.4,82.32s19.68.06,34.5,6.64S72.3,103.23,68.06,106.14Z"/><path class="cls-13" d="M61.94,37.3c2,.85,3.44-3.73,2.83-5.91s-2.25-2.22-2.25-2.22H60.36l-1.79,2.54.57,2.57A40.59,40.59,0,0,0,61.94,37.3Z"/><path class="cls-14" d="M61.67,29.42a4,4,0,0,1,1.36-.2s-.26-.09-.2-.76a2.71,2.71,0,0,1,2-2.47A3.11,3.11,0,0,1,69,29.52c-.64,1.93-4.91,3.76-4.91,3.76s-1.55.63-4.68-.21c-.88-.23-.27-2.87-.27-2.87S60.82,29.66,61.67,29.42Z"/><path class="cls-15" d="M55.22,26.83c3,.64,4.71,2.15,7.3,2.34-4.87,2.25-.58,8.13-.58,8.13L54,33.91S53.92,26.58,55.22,26.83Z"/><path class="cls-16" d="M55.74,27c1.75,3.06-.57,7.32-.57,7.32l-1.35-3.66S55.34,26.48,55.74,27Z"/><path class="cls-17" d="M40.31,11.56A8.76,8.76,0,0,1,39.07,16l1.44,3.48,5,4.14,3.94.27,3.6-2.74-2.71-5.77L43.91,9.71S40.33,10.67,40.31,11.56Z"/><path class="cls-14" d="M63,97.87c2.73,1.94,5.2,2.58,5.79,3.48s.42,2.81-.21,3.25-2.62.46-4.39-.26a23.67,23.67,0,0,1-4.44-3s-4.26.11-5-.79-.55-3.3-.55-3.3S62.45,97.31,63,97.87Z"/><path class="cls-15" d="M47.41,60.63c4.94,6.27,11.42,17.64,11.42,17.64-2.43,5.26-3.7,12.69-6.18,17,.7,4.88,9,4.57,10.76,2.56-2-5.5,4.8-15.86,4.29-20-.59-4.88-6.65-21.14-8.31-23.94-.51-1.57-3.53-7-3.53-7l-5.53,2.45S46.53,59.2,47.41,60.63Z"/><path class="cls-16" d="M48.66,62.28l5.52-3.18s-.64-11.36.54-12.72,4.74,7.09,4.67,7.48c-2.13-1.94-3.18-2.79-3.18-2.79a30.59,30.59,0,0,0,1,9.29C53.7,62.72,48.66,62.28,48.66,62.28Z"/><path class="cls-14" d="M22.21,85.16c.17,1.08,2,2,2.17,3.57.12,1.32-1.91,2-1.91,2s-3.18.53-4.76-1.22c-2.09-2.32-2.5-6.73-2.5-6.73s-1.77-3.17.61-5.34C16.29,77.15,22.15,84.75,22.21,85.16Z"/><path class="cls-15" d="M32.3,57.61a108.63,108.63,0,0,0-3.79,13.77c-5.08-.79-7.87,3.85-12.84,5.65-2.05,8.13,6.54,8.13,6.54,8.13s.74-4.45,10.4-6.23c1.57-.29,8.57-9.91,11.57-18C44.2,59.39,33.23,56,32.3,57.61Z"/><path class="cls-15" d="M54.05,47.76s2.26.87,5.34,6.1C59,50.61,56.79,47,55.86,42.74c-1.21-.76-3.56,1.35-3.56,1.35Z"/><path class="cls-16" d="M32,58.54,43.32,63a9,9,0,0,1-7.34.22A7.94,7.94,0,0,1,32,58.54Z"/><path class="cls-15" d="M36.64,43.53c-4,2.71-3.48,10.06-5.24,14.24,6.55,9.9,22.67,3,24.34,2-1.73-7.81.71-13-2.23-15.2-.86-.63-9.33,2.24-9.33,2.24S37.41,43.37,36.64,43.53Z"/><path class="cls-15" d="M49.54,15.63a16.64,16.64,0,0,1-1,10.62l6.26,5.46a20.77,20.77,0,0,0,1-8.76c-.49-5-4.29-6.51-5.33-8.54C49.66,12.85,49.13,14.94,49.54,15.63Z"/><path class="cls-16" d="M49.74,22.17c6.07,1.82,5.47,8.34,5.47,8.34l-5.47-4.37A8.09,8.09,0,0,1,49.74,22.17Z"/><path class="cls-15" d="M55.06,41.52s.1-4.67.17-9.75C55.87,23,39.63,15.86,39.07,16c-3.17,2.9-3.19,5-6,7.57-.19,1.71.7,6.13.53,7.52.83,5.88,3.48,6.67,3,10.45a4.18,4.18,0,0,1,1.08,2.57l3.71,2.07H47.8l5.55-1.54Z"/><path class="cls-6" d="M36.64,44.45s4.18,7.43,18.42,0c1.08-.54.71-3.32,0-2.93-13,8.28-18.42,0-18.42,0Z"/><path class="cls-13" d="M61.09,48.6a2.42,2.42,0,0,0,1.8.69c1.39-.23,2.7-2.29,3.07-6.67.2-2.26-2.55-3.31-2.55-3.31l-2.47-.43-2.61,2.69.26,3.31Z"/><path class="cls-14" d="M51.9,4.92C53,8.35,51.46,16.56,51.34,17A3.47,3.47,0,0,1,49,18.48c-2.7,0-5.72-2.9-6.21-3.25s-.76-2.15-.76-2.15a1.79,1.79,0,0,1-1.7-1.39c-.17-.56-.65-1.72-.65-1.72V8L41,5.51,44.4,4.26l5.26-.67A18.85,18.85,0,0,1,51.9,4.92Z"/><path class="cls-18" d="M40.35,11.69s-.94-2.73,0-2.91c1.67-.3,2.25,1.63,2.48,1.9C42.94,9,45,9.56,45.3,7.32c1.32.38,5.15-.24,5.15-.24S52.21,4.87,52,4.44s-3.29-7-9.92-3.35c-3,1.66-3,5.06-3,6.42A6.28,6.28,0,0,0,40.35,11.69Z"/><path class="cls-14" d="M63.41,39.31l1.18.57s3.87-.66,5-.28a3.12,3.12,0,0,1,2,2.47,2.62,2.62,0,0,1-1,2.75,5,5,0,0,1-3.08,1.34,8.38,8.38,0,0,1-2.52-1c-.47-.23-.12-1-.12-1a7.21,7.21,0,0,1-2-.06c-.58-.2-.87-1-.87-1H58.83l1.39-3.71Z"/><path class="cls-16" d="M39.7,24.89a43.26,43.26,0,0,1,12.2,7.63l3.31,1.18L55.11,41s-1.88,1.9-2.48,1.93c-9.59-2.08-19-11.85-19-11.85S39.09,24.86,39.7,24.89Z"/><path class="cls-15" d="M32,24.8c1.64-2.61,4.29-2.14,6.83-.52,1.68,1.07,12.09,8.47,12.78,9.34,4.47.93,8.94,4.44,11.84,5.69,0,0-1.62-.06-2.67,3.25a10.16,10.16,0,0,0,.35,6C50.93,41.17,36,33.45,33.64,31.07,32.74,30.17,30.33,27.39,32,24.8Z"/><path class="cls-6" d="M49.28,45.44s-1.19,8.44-.57,11.27c.35.26,2.09.5,2.71-.36a62.31,62.31,0,0,1-.85-10.91Z"/><path class="cls-6" d="M50.39,45.85a22.39,22.39,0,0,1,1.7,7.33c.8-.66,2-.39,2.13-1.1s-2.94-6.64-2.94-6.64Z"/></g></g></g></svg>