<svg xmlns="http://www.w3.org/2000/svg" xmlns:xlink="http://www.w3.org/1999/xlink" viewBox="0 0 86.45 122.01"><defs><style>.cls-1{isolation:isolate;}.cls-2{opacity:0.93;}.cls-3{fill:url(#Degradado_sin_nombre_6);}.cls-4{mix-blend-mode:multiply;}.cls-5{fill:url(#Degradado_sin_nombre_6-2);}.cls-6{fill:#131214;}.cls-7{fill:url(#Degradado_sin_nombre_6-3);}.cls-8{fill:#303033;}.cls-9{fill:url(#Degradado_sin_nombre_6-4);}.cls-10{opacity:0.11;fill:url(#Degradado_sin_nombre_3);}.cls-11{fill:#b32218;}.cls-12{fill:#952921;}.cls-13{fill:#c2a194;}.cls-14{fill:#e8c2b2;}.cls-15{fill:#fff;}.cls-16{fill:#c23234;}.cls-17{fill:#535359;}.cls-18{fill:#939597;}.cls-19{fill:#259b93;}.cls-20{fill:#5e3918;}.cls-21{fill:#3c2415;}.cls-22{fill:#167a6e;}</style><linearGradient id="Degradado_sin_nombre_6" x1="2.57" y1="75.56" x2="83.87" y2="75.56" gradientUnits="userSpaceOnUse"><stop offset="0" stop-color="#2b2b2b"/><stop offset="0.31" stop-color="#2e2e2e"/><stop offset="0.56" stop-color="#383839"/><stop offset="0.8" stop-color="#48484a"/><stop offset="1" stop-color="#5b5b5f"/></linearGradient><linearGradient id="Degradado_sin_nombre_6-2" x1="32.68" y1="38.08" x2="69.97" y2="38.08" xlink:href="#Degradado_sin_nombre_6"/><linearGradient id="Degradado_sin_nombre_6-3" x1="52.43" y1="50.86" x2="86.43" y2="50.86" xlink:href="#Degradado_sin_nombre_6"/><linearGradient id="Degradado_sin_nombre_6-4" x1="8.21" y1="75.56" x2="78.23" y2="75.56" xlink:href="#Degradado_sin_nombre_6"/><linearGradient id="Degradado_sin_nombre_3" x1="3.14" y1="71.92" x2="73.22" y2="71.92" gradientUnits="userSpaceOnUse"><stop offset="0.03" stop-color="#aeadb2"/><stop offset="1" stop-color="#5b5b5f"/></linearGradient></defs><title>Recurso 5</title><g class="cls-1"><g id="Capa_2" data-name="Capa 2"><g id="Capa_1-2" data-name="Capa 1"><g class="cls-2"><path class="cls-3" d="M83.87,75.56A40.65,40.65,0,1,1,43.22,34.91,40.65,40.65,0,0,1,83.87,75.56Z"/></g><g class="cls-4"><path class="cls-5" d="M63.29,47.06A34.6,34.6,0,0,0,43.22,40.7a35,35,0,0,0-7.92.91l-2.62-11.3A46.59,46.59,0,0,1,70,37.58Z"/></g><path class="cls-6" d="M43.22,122a46.58,46.58,0,0,1-21.13-5.08l5.28-10.32a35,35,0,0,0,31.7,0l5.28,10.32A46.61,46.61,0,0,1,43.22,122Z"/><path class="cls-7" d="M73.86,68.55a31.46,31.46,0,0,0-21.43-23l3.78-12.32A44.39,44.39,0,0,1,86.43,65.69Z"/><path class="cls-8" d="M32.47,118a43.55,43.55,0,0,1-29-23.55L15,88.89a30.73,30.73,0,0,0,20.48,16.62Z"/><path class="cls-9" d="M77.52,68.5a35.66,35.66,0,0,1,.71,7.06,35,35,0,1,1-35-35m0,0a35,35,0,0,1,34.3,28"/><path class="cls-10" d="M22.87,108.61,73.22,43S31.74,16.9,5.47,60.46C5.47,60.46-6.24,86.17,22.87,108.61Z"/><path class="cls-11" d="M28.74,109.83A37.15,37.15,0,0,1,6,75.56H10.4a32.77,32.77,0,0,0,20,30.24Z"/><path class="cls-8" d="M43.22,112.76A37.24,37.24,0,0,1,6,75.56H10.4a32.85,32.85,0,0,0,32.82,32.81Zm37.2-37.2H76A32.86,32.86,0,0,0,43.22,42.74V38.36A37.24,37.24,0,0,1,80.42,75.56Z"/><path class="cls-8" d="M76.3,103.39l-4-3.32a38.16,38.16,0,0,0,6.56-37.81l4.83-1.8a43.29,43.29,0,0,1-7.44,42.93Z"/><path class="cls-6" d="M10.63,59.73,4.3,56.84A44.16,44.16,0,0,1,40.66,31.22l.6,6.93A37.21,37.21,0,0,0,10.63,59.73Z"/><path class="cls-6" d="M25.1,112.91A43.27,43.27,0,0,1,0,77.29l5.13-.44a38.18,38.18,0,0,0,22.11,31.37Z"/><path class="cls-12" d="M25.88,103.69c1.32,5.25,13.21,6.79,26.54,3.42S75.5,96.78,74.17,91.53,61,84.75,47.64,88.11,24.56,98.45,25.88,103.69Z"/><polygon class="cls-13" points="59.97 12.67 63.2 18.79 60.32 24.71 55.06 25.16 49.81 23.39 48.6 20.28 48.6 14.48 54.08 12.67 59.97 12.67"/><path class="cls-14" d="M45.08,15.52c-3.16-5.48-8.37-.11-8.37-.11s-5.37,2.42-10,5.19c-5.88.81-5.83,2.74-9,4.88-.38,1.13.87,3.7,2.54,3.9,3.14-1.43,5.34-1,7.88-3.39,11.2-1.77,12.27-4,15-4.35C44.33,21.49,47,18.88,45.08,15.52Z"/><path class="cls-15" d="M15.28,27.13s2.68-1.87,2.41-1.65c3.17.55,2.54,3.9,2.54,3.9L17.7,30.47Z"/><path class="cls-16" d="M18.06,29.88a3.1,3.1,0,0,0-2.6-2.81s-4.79.9-6.64,2.31c-1.37,1-2.14,4.17-.88,5.77a3.15,3.15,0,0,0,4.58.81,1.66,1.66,0,0,0,2.22.85A6.4,6.4,0,0,0,18.06,29.88Z"/><path class="cls-17" d="M54.88,22.28c-7-1.83-3.38-7.76-3.74-9.61-2.83.39-9.6.47-9.6.47s4,2.69-.55,9.14c-.68,2.86,2.39,8.56,1.7,16.87l.85,3,6.08,1.47,7,.46L59.45,43l1.74-1.83.67-3.54,5.48-14.78a5.11,5.11,0,0,0,1.89-3.66c-2.56-2.54-7.37-4.72-7.37-4.72S61.91,24.11,54.88,22.28Z"/><path class="cls-18" d="M62.88,83.18a9,9,0,0,1-.19,2.31L63,87l2.43,1.58,2.12-.46-.2-2.51a16.31,16.31,0,0,1,.1-2.63C67.59,81.85,62.82,81.89,62.88,83.18Z"/><path class="cls-18" d="M35.55,91.3a31.21,31.21,0,0,1,0,4.57l1.92,1.57L40,95.88,40.69,94a10,10,0,0,1-.29-3.87C40.65,89,35.35,89.81,35.55,91.3Z"/><path class="cls-19" d="M61.86,43.85c4.92,12.54,5.31,26.63,5.31,26.63a18.51,18.51,0,0,1,.65,12.24c-.57,2-3.46,1.63-5.19.61s-2.77-9.69-2.77-9.69S52.29,60.55,51.14,56.1C47.21,67,42.77,77.41,42.77,77.41s-.1,10.89-1.69,12.77-5.35,2.79-6.39.47-1-13.24.69-16.94c.69-1.5,2.31-25.17,6.54-31.34,1-.52,3.7,0,3.7,0l6.27,1.55L58.47,43S60.91,42.73,61.86,43.85Z"/><path class="cls-14" d="M50.81,5.71c-1.32,3.75-.52,10.16-.5,11.06s1.94,2.46,3.95,1.9c1.23-.35,5.37-3.21,5.42-4.07.26-.72,3.52-2,3.52-2l-1-5.05L57.14,4,53.59,2.82l-2.36,1.1A4.33,4.33,0,0,0,50.81,5.71Z"/><path class="cls-20" d="M62,13.14s.05-2.23-.82-2.2S60,11.5,59.45,12c0-1.68-1.56-2.2-1.48-4.6-.22,0-3.42,0-4.26.46a35.72,35.72,0,0,1-1.9-3.08,1.42,1.42,0,0,0-1,.89,9,9,0,0,1,.3-3.06C52.09.54,56.19-1,59,.8,65.83,1.9,64,12,64,12Z"/><path class="cls-13" d="M63.42,25.06S65,19.37,69,19c1.07.47,6.39,5.35-1.64,12.32-.55.48-3.06,6-5.18,8-1.94,1.78-2.71-8.76-2.71-8.76Z"/><path class="cls-14" d="M63.32,24s.84,8.9.61,10.78-1.28,5.51-3.76,5.51c-1.7,0-3.84-3.73-3.46-6.64s2.18-10.23,2.18-10.23Z"/><path class="cls-15" d="M63.49,21.62s-.14,1.91-.14,2.27c-.39,1.45-4.46.79-4.46-.5,0-.45.23-3.11.23-3.11Z"/><path class="cls-16" d="M63.58,21.5c.56-.95,2.51-2.57,3-3.87.17-.42,2.09-3.8-1.07-6s-7.7,1.73-7.26,4a2.11,2.11,0,0,0,1.35,1.54s-.81,2.94-.38,4.06S62.83,22.77,63.58,21.5Z"/><path class="cls-21" d="M58.25,1.38c-2.2.63-3.7,4.27-3.7,4.27A31.42,31.42,0,0,1,58.25,1.38Z"/><path class="cls-22" d="M61.19,41.15s-10,5.08-18.5-2a18.34,18.34,0,0,0-.77,3.22c10,6.87,19.94,1.48,19.94,1.48Z"/><polygon class="cls-22" points="51.14 56.1 44.85 51.54 50.6 57.6 51.14 56.1"/><polygon class="cls-22" points="51.14 56.1 58.3 51.54 51.63 57.6 51.14 56.1"/><path class="cls-15" d="M40.69,94c0,1.34-3.81,4.07-5.83,1.17-.52.45-5,3.56-5.95,5.14s-1,5,1.1,5.25,4-1.67,4-1.67l3.09-3.91a4.84,4.84,0,0,0,3.45-2.27A5.7,5.7,0,0,0,40.69,94Z"/><path class="cls-15" d="M34.65,94a3,3,0,0,0,1.05,2.61c.76.66,1.54.57,1.73-.21a3,3,0,0,0-1-2.61C35.61,93.08,34.84,93.17,34.65,94Z"/><path class="cls-15" d="M62.69,85.49s3.67,3.23,5.25.75c1.38,2.64,4.58,3.6,5.37,5.54s.52,5.33-1.79,5.33a3.87,3.87,0,0,1-3.52-2c-.83-1.12-1.93-3-2.49-3.85s-2.46-1.62-2.82-2.58A6.59,6.59,0,0,1,62.69,85.49Z"/><path class="cls-15" d="M66.14,86.82c0,.8.49,1.17,1.09.82a2.6,2.6,0,0,0,1.08-2.06c0-.8-.49-1.17-1.08-.82A2.58,2.58,0,0,0,66.14,86.82Z"/></g></g></g></svg>